<svg id="svg" version="1.1" xmlns="http://www.w3.org/2000/svg" xmlns:xlink="http://www.w3.org/1999/xlink" width="400" height="400" viewBox="0, 0, 400,400"><g id="svgg"><path id="path0" d="M189.600 90.525 C 175.730 92.286,166.682 99.776,160.031 115.000 C 155.072 126.350,153.007 137.266,152.107 156.900 C 151.744 164.816,148.526 188.023,143.898 216.100 C 141.605 230.016,141.509 230.614,140.905 234.882 C 137.285 260.440,139.484 272.095,149.893 282.508 C 159.659 292.279,174.348 297.736,184.100 295.217 C 197.136 291.850,202.179 274.114,198.576 244.300 C 196.775 229.388,190.319 208.836,184.921 200.830 C 184.525 200.241,184.200 199.720,184.200 199.671 C 184.200 199.474,182.147 196.558,181.240 195.466 C 170.423 182.451,168.866 171.793,174.027 146.100 C 177.199 130.314,178.593 127.888,186.667 124.098 C 188.331 123.317,189.734 122.776,195.600 120.650 C 198.048 119.763,200.891 118.426,202.252 117.523 L 203.326 116.810 204.384 117.212 C 204.966 117.433,206.715 117.792,208.271 118.009 C 215.764 119.056,216.925 119.249,218.553 119.718 C 222.530 120.863,224.617 122.333,227.184 125.794 C 233.551 134.382,237.582 147.093,237.936 159.700 C 238.190 168.744,237.135 172.553,230.941 184.960 C 225.006 196.847,223.654 201.605,223.457 211.300 C 223.207 223.643,226.040 230.304,232.856 233.394 C 235.735 234.700,239.493 235.462,247.700 236.405 C 262.074 238.055,266.226 239.717,274.700 247.207 C 280.126 252.003,281.616 252.571,282.650 250.234 C 284.298 246.509,282.134 236.034,273.368 205.302 C 266.312 180.561,263.972 171.494,262.399 162.800 C 261.330 156.892,259.060 149.228,251.973 127.600 C 248.745 117.749,246.896 113.587,243.442 108.400 C 233.185 92.995,214.528 85.997,204.017 93.611 L 203.247 94.168 202.174 93.355 C 199.272 91.158,193.986 89.968,189.600 90.525 " stroke="none" fill="#564438" fill-rule="evenodd"></path><path id="path1" d="M0.000 200.000 L 0.000 400.000 200.000 400.000 L 400.000 400.000 400.000 200.000 L 400.000 0.000 200.000 0.000 L 0.000 0.000 0.000 200.000 M210.200 37.486 C 288.881 43.715,346.294 112.348,338.284 190.600 C 331.748 254.454,281.648 305.845,217.900 314.085 C 154.164 322.324,92.990 285.684,69.998 225.500 C 57.023 191.536,58.175 151.827,73.078 119.325 C 74.014 117.284,74.035 117.363,72.363 116.625 C 66.649 114.101,61.249 109.470,57.457 103.842 L 56.014 101.700 57.084 101.482 C 58.237 101.248,59.873 100.392,60.165 99.870 C 60.309 99.612,60.554 99.862,61.399 101.124 C 64.542 105.823,68.761 109.492,73.958 112.042 C 75.089 112.597,76.042 113.018,76.075 112.976 C 76.108 112.934,76.660 111.910,77.301 110.700 C 85.723 94.802,99.630 78.026,112.841 67.827 C 114.077 66.873,114.082 66.893,112.032 64.843 C 97.517 50.327,72.685 52.565,61.452 69.400 C 56.926 76.184,55.450 84.998,57.564 92.623 L 57.928 93.934 56.409 93.917 C 55.315 93.905,54.652 94.007,54.043 94.281 C 52.978 94.761,53.065 94.888,52.445 91.968 C 50.117 81.003,53.881 69.119,62.274 60.934 C 77.493 46.092,103.206 47.131,117.060 63.147 L 117.793 63.993 120.146 62.325 C 140.687 47.767,165.762 38.973,191.200 37.408 C 193.125 37.290,195.060 37.158,195.500 37.115 C 197.092 36.960,206.585 37.200,210.200 37.486 M308.774 283.691 C 318.848 286.372,318.848 300.428,308.774 303.109 C 302.576 304.759,296.200 299.836,296.200 293.400 C 296.200 286.967,302.578 282.042,308.774 283.691 M304.549 286.204 C 298.947 287.620,296.958 294.634,301.031 298.612 C 305.098 302.584,311.916 300.778,313.506 295.308 C 315.015 290.117,309.849 284.866,304.549 286.204 M234.300 341.394 C 280.559 342.612,304.642 345.300,295.261 348.198 C 277.725 353.614,156.277 354.677,114.400 349.781 C 84.421 346.276,116.942 342.035,180.800 341.121 C 189.049 341.003,226.759 341.196,234.300 341.394 " stroke="none" fill="#fbfbfb" fill-rule="evenodd"></path><path id="path2" d="M241.462 236.656 C 239.579 240.515,233.414 246.087,228.055 248.775 C 220.916 252.354,210.092 252.723,200.309 249.719 C 199.097 249.347,199.192 249.182,199.456 251.200 C 199.783 253.701,199.767 267.771,199.434 270.400 C 197.906 282.482,194.390 289.964,188.574 293.513 C 176.009 301.179,150.663 289.682,142.688 272.699 C 139.731 266.400,138.629 257.403,139.451 246.254 L 139.602 244.208 137.751 245.329 C 106.467 264.288,108.028 285.575,141.900 301.918 C 179.956 320.279,228.157 319.058,265.678 298.784 C 288.099 286.669,296.396 272.417,288.566 259.471 C 286.541 256.123,282.217 251.270,281.567 251.617 C 280.593 252.139,279.053 251.167,274.359 247.067 C 265.810 239.599,261.910 238.111,246.400 236.401 C 244.365 236.177,242.514 235.952,242.287 235.902 C 241.962 235.830,241.787 235.990,241.462 236.656 M228.300 242.345 C 227.530 242.744,225.775 243.457,224.400 243.930 C 223.025 244.402,222.024 244.791,222.175 244.794 C 223.087 244.813,229.800 242.087,229.800 241.698 C 229.800 241.563,229.858 241.538,228.300 242.345 M200.200 243.682 C 201.367 244.406,206.618 245.828,207.942 245.779 C 208.249 245.768,207.825 245.645,207.000 245.506 C 205.240 245.208,202.823 244.564,201.464 244.030 C 199.862 243.400,199.652 243.343,200.200 243.682 M209.154 245.945 C 209.513 245.989,210.053 245.989,210.354 245.943 C 210.654 245.897,210.360 245.861,209.700 245.862 C 209.040 245.863,208.794 245.900,209.154 245.945 " stroke="none" fill="#91bad6" fill-rule="evenodd"></path><path id="path3" d="M195.500 37.115 C 195.060 37.158,193.125 37.290,191.200 37.408 C 165.428 38.994,139.185 48.336,119.039 63.097 L 117.777 64.021 118.491 64.961 C 130.521 80.788,126.395 102.974,109.357 114.080 C 99.475 120.521,86.037 121.994,75.275 117.816 C 74.252 117.418,73.800 117.320,73.800 117.496 C 73.800 117.636,73.475 118.459,73.078 119.325 C 47.090 176.002,63.782 245.098,113.000 284.584 C 135.596 302.712,165.674 314.217,192.200 314.878 C 193.795 314.918,194.605 314.916,194.000 314.874 C 148.319 311.690,111.169 290.406,115.503 269.900 C 117.261 261.584,125.740 252.382,138.670 244.759 C 139.716 244.142,139.637 244.389,140.095 240.300 C 140.461 237.041,141.230 231.506,141.694 228.800 C 141.855 227.865,142.029 226.740,142.083 226.300 C 142.136 225.860,142.945 220.910,143.881 215.300 C 146.231 201.212,146.399 200.153,147.610 191.700 C 147.941 189.390,148.434 186.015,148.704 184.200 C 148.974 182.385,149.240 180.495,149.295 180.000 C 149.349 179.505,149.534 178.155,149.706 177.000 C 150.996 168.314,151.997 159.335,151.956 156.800 C 151.952 156.511,152.317 150.470,152.501 147.800 C 154.445 119.558,164.744 98.875,179.800 92.972 C 188.957 89.382,197.335 89.496,202.260 93.276 L 203.220 94.013 203.760 93.632 C 213.560 86.714,230.456 91.676,240.784 104.505 C 245.658 110.559,248.298 115.941,252.111 127.600 C 259.922 151.485,261.373 156.476,262.998 165.047 C 264.403 172.458,266.625 181.084,271.899 199.600 C 278.719 223.545,280.487 230.174,281.876 237.000 C 283.413 244.558,283.631 249.213,282.525 250.840 L 282.076 251.500 283.938 253.500 C 296.391 266.878,293.830 278.559,275.287 292.956 C 274.085 293.890,279.192 290.462,281.600 288.719 C 329.435 254.101,350.098 192.944,333.166 136.100 C 317.490 83.472,271.090 44.460,216.600 38.094 C 210.347 37.364,198.565 36.817,195.500 37.115 M85.850 50.538 C 86.043 50.588,86.358 50.588,86.550 50.538 C 86.743 50.488,86.585 50.446,86.200 50.446 C 85.815 50.446,85.658 50.488,85.850 50.538 M90.552 50.541 C 90.801 50.589,91.161 50.587,91.352 50.537 C 91.544 50.487,91.340 50.448,90.900 50.450 C 90.460 50.453,90.304 50.494,90.552 50.541 M91.250 55.338 C 91.442 55.388,91.758 55.388,91.950 55.338 C 92.142 55.288,91.985 55.246,91.600 55.246 C 91.215 55.246,91.058 55.288,91.250 55.338 M61.800 61.300 C 61.314 61.795,60.962 62.200,61.017 62.200 C 61.072 62.200,61.514 61.795,62.000 61.300 C 62.486 60.805,62.838 60.400,62.783 60.400 C 62.728 60.400,62.286 60.805,61.800 61.300 M115.192 61.250 C 115.682 61.773,116.110 62.200,116.142 62.200 C 116.292 62.200,116.133 62.020,115.250 61.192 L 114.300 60.300 115.192 61.250 M113.777 66.920 C 113.734 67.019,112.373 68.209,110.750 69.565 C 97.206 80.885,85.606 95.136,77.333 110.621 C 75.917 113.272,75.849 113.015,78.164 113.769 C 83.172 115.399,90.012 115.840,94.911 114.850 C 115.150 110.758,126.147 90.644,117.782 73.017 C 116.554 70.431,113.962 66.485,113.777 66.920 M51.846 83.000 C 51.846 83.385,51.888 83.543,51.938 83.350 C 51.988 83.158,51.988 82.843,51.938 82.650 C 51.888 82.458,51.846 82.615,51.846 83.000 M51.846 87.600 C 51.846 87.985,51.888 88.142,51.938 87.950 C 51.988 87.758,51.988 87.442,51.938 87.250 C 51.888 87.058,51.846 87.215,51.846 87.600 M61.792 109.250 C 62.620 110.133,62.800 110.292,62.800 110.142 C 62.800 110.110,62.373 109.682,61.850 109.192 L 60.900 108.300 61.792 109.250 M208.154 314.945 C 208.513 314.989,209.053 314.989,209.354 314.943 C 209.654 314.897,209.360 314.861,208.700 314.862 C 208.040 314.863,207.794 314.900,208.154 314.945 M197.950 315.149 C 199.298 315.184,201.503 315.184,202.850 315.149 C 204.197 315.115,203.095 315.086,200.400 315.086 C 197.705 315.086,196.603 315.115,197.950 315.149 M180.800 341.121 C 122.678 341.953,89.170 345.606,108.669 348.986 C 141.135 354.612,276.342 354.041,295.261 348.198 C 304.642 345.300,280.559 342.612,234.300 341.394 C 226.759 341.196,189.049 341.003,180.800 341.121 " stroke="none" fill="#d3d3d3" fill-rule="evenodd"></path><path id="path4" d="M235.270 234.706 C 235.205 234.875,235.206 235.280,235.271 235.606 C 235.338 235.940,235.305 236.200,235.195 236.200 C 235.088 236.200,235.000 236.326,235.000 236.480 C 235.000 236.946,233.267 239.054,232.270 239.800 C 231.755 240.185,231.142 240.697,230.906 240.937 C 230.671 241.177,230.356 241.402,230.206 241.437 C 230.056 241.472,229.761 241.664,229.551 241.865 C 229.341 242.066,229.036 242.180,228.874 242.118 C 228.685 242.045,228.630 242.088,228.722 242.236 C 228.819 242.392,228.754 242.425,228.522 242.336 C 228.291 242.248,228.226 242.280,228.322 242.436 C 228.419 242.592,228.354 242.625,228.122 242.536 C 227.891 242.448,227.826 242.480,227.922 242.636 C 228.019 242.792,227.954 242.825,227.722 242.736 C 227.491 242.648,227.426 242.680,227.522 242.836 C 227.619 242.992,227.554 243.025,227.322 242.936 C 227.133 242.864,227.030 242.887,227.093 242.988 C 227.239 243.226,226.475 243.470,226.171 243.282 C 226.032 243.196,225.992 243.225,226.072 243.355 C 226.234 243.617,225.498 243.884,225.171 243.682 C 225.016 243.586,224.992 243.626,225.100 243.801 C 225.221 243.996,225.152 244.034,224.831 243.950 C 224.554 243.878,224.447 243.914,224.531 244.050 C 224.615 244.187,224.508 244.222,224.231 244.150 C 223.957 244.079,223.847 244.114,223.930 244.248 C 224.016 244.387,223.864 244.413,223.480 244.323 C 223.029 244.218,222.967 244.237,223.200 244.410 C 223.440 244.587,223.391 244.614,222.956 244.545 C 222.625 244.492,222.461 244.536,222.536 244.658 C 222.614 244.785,222.459 244.808,222.113 244.721 C 221.717 244.622,221.607 244.649,221.713 244.821 C 221.819 244.993,221.709 245.021,221.313 244.921 C 220.915 244.821,220.807 244.849,220.914 245.023 C 221.023 245.199,220.892 245.228,220.421 245.134 C 219.982 245.046,219.823 245.075,219.915 245.224 C 220.008 245.375,219.855 245.400,219.425 245.305 C 218.998 245.212,218.800 245.244,218.800 245.406 C 218.800 245.571,218.579 245.603,218.080 245.510 C 217.576 245.415,217.402 245.441,217.498 245.596 C 217.596 245.755,217.334 245.779,216.587 245.679 C 215.980 245.599,215.586 245.616,215.650 245.720 C 215.713 245.824,214.220 245.909,212.130 245.922 C 210.104 245.935,208.677 245.873,208.900 245.782 C 209.139 245.686,208.816 245.658,208.100 245.714 C 207.206 245.783,207.002 245.755,207.300 245.604 C 207.627 245.438,207.584 245.421,207.067 245.513 C 206.224 245.661,204.863 245.411,205.230 245.174 C 205.396 245.068,205.229 245.046,204.800 245.117 C 204.267 245.206,204.171 245.182,204.400 245.017 C 204.629 244.852,204.533 244.828,204.000 244.917 C 203.457 245.008,203.367 244.984,203.600 244.811 C 203.834 244.637,203.773 244.617,203.320 244.723 C 202.936 244.813,202.784 244.787,202.870 244.648 C 202.953 244.514,202.843 244.479,202.569 244.550 C 202.292 244.622,202.185 244.587,202.269 244.450 C 202.353 244.314,202.246 244.278,201.969 244.350 C 201.648 244.434,201.579 244.396,201.700 244.201 C 201.808 244.026,201.784 243.986,201.629 244.082 C 201.325 244.270,200.561 244.026,200.707 243.788 C 200.770 243.687,200.667 243.664,200.478 243.736 C 200.246 243.825,200.181 243.792,200.278 243.636 C 200.371 243.485,200.313 243.446,200.110 243.524 C 199.939 243.589,199.800 243.538,199.800 243.410 C 199.800 243.281,199.710 243.232,199.600 243.300 C 199.490 243.368,199.400 243.343,199.400 243.244 C 199.400 243.145,199.181 242.964,198.913 242.843 C 198.470 242.641,198.435 242.660,198.516 243.060 C 198.565 243.302,198.650 244.040,198.704 244.700 C 198.758 245.360,198.862 246.170,198.935 246.500 C 199.072 247.124,199.101 247.400,199.163 248.642 C 199.205 249.479,199.736 249.706,203.700 250.578 C 219.151 253.976,231.730 249.892,240.097 238.762 C 241.792 236.507,242.037 235.797,241.157 235.692 C 240.280 235.587,236.609 234.794,236.094 234.598 C 235.423 234.343,235.409 234.344,235.270 234.706 M199.654 255.400 C 199.654 255.895,199.693 256.098,199.741 255.850 C 199.789 255.603,199.789 255.197,199.741 254.950 C 199.693 254.703,199.654 254.905,199.654 255.400 M199.646 266.600 C 199.646 266.985,199.688 267.143,199.738 266.950 C 199.788 266.757,199.788 266.443,199.738 266.250 C 199.688 266.058,199.646 266.215,199.646 266.600 M149.700 282.600 C 150.242 283.150,150.730 283.600,150.785 283.600 C 150.840 283.600,150.442 283.150,149.900 282.600 C 149.358 282.050,148.870 281.600,148.815 281.600 C 148.760 281.600,149.158 282.050,149.700 282.600 M177.150 295.941 C 177.398 295.989,177.803 295.989,178.050 295.941 C 178.298 295.893,178.095 295.854,177.600 295.854 C 177.105 295.854,176.903 295.893,177.150 295.941 M179.550 295.941 C 179.798 295.989,180.203 295.989,180.450 295.941 C 180.697 295.893,180.495 295.854,180.000 295.854 C 179.505 295.854,179.303 295.893,179.550 295.941 " stroke="none" fill="#7ba3c3" fill-rule="evenodd"></path><path id="path5" d="M202.400 117.430 C 201.195 118.262,197.937 119.806,195.600 120.651 C 187.707 123.507,185.850 124.302,183.455 125.851 C 179.192 128.609,177.240 131.628,175.804 137.690 C 169.462 164.455,169.720 178.272,176.769 189.400 C 177.647 190.786,179.971 193.939,181.240 195.466 C 181.773 196.108,182.673 197.323,183.239 198.166 C 183.805 199.010,184.359 199.760,184.470 199.834 C 184.581 199.908,184.690 200.088,184.712 200.234 C 184.734 200.380,185.090 201.077,185.504 201.782 C 190.502 210.297,195.518 225.569,197.892 239.500 C 198.481 242.956,198.283 242.692,201.088 243.778 C 209.208 246.922,219.507 246.396,227.926 242.407 C 232.519 240.231,235.204 237.554,235.198 235.156 L 235.196 234.300 233.730 233.751 C 226.344 230.983,223.198 224.106,223.457 211.300 C 223.654 201.605,225.006 196.847,230.941 184.960 C 237.135 172.553,238.190 168.744,237.936 159.700 C 237.582 147.093,233.551 134.382,227.184 125.794 C 223.373 120.655,221.040 119.679,208.800 118.102 C 206.739 117.836,204.558 117.338,203.500 116.892 C 203.390 116.846,202.895 117.088,202.400 117.430 " stroke="none" fill="#ab8456" fill-rule="evenodd"></path><path id="path6" d="M87.150 50.541 C 87.398 50.589,87.803 50.589,88.050 50.541 C 88.298 50.493,88.095 50.454,87.600 50.454 C 87.105 50.454,86.903 50.493,87.150 50.541 M88.950 50.541 C 89.198 50.589,89.603 50.589,89.850 50.541 C 90.098 50.493,89.895 50.454,89.400 50.454 C 88.905 50.454,88.703 50.493,88.950 50.541 M87.746 55.144 C 88.101 55.189,88.731 55.189,89.146 55.146 C 89.560 55.103,89.270 55.067,88.500 55.066 C 87.730 55.065,87.390 55.100,87.746 55.144 M65.092 64.650 L 64.100 65.700 65.150 64.708 C 65.728 64.162,66.200 63.689,66.200 63.658 C 66.200 63.508,66.015 63.674,65.092 64.650 M111.900 64.600 C 112.442 65.150,112.930 65.600,112.985 65.600 C 113.040 65.600,112.642 65.150,112.100 64.600 C 111.558 64.050,111.070 63.600,111.015 63.600 C 110.960 63.600,111.358 64.050,111.900 64.600 M121.300 69.600 C 121.471 69.930,121.655 70.200,121.710 70.200 C 121.765 70.200,121.671 69.930,121.500 69.600 C 121.329 69.270,121.145 69.000,121.090 69.000 C 121.035 69.000,121.129 69.270,121.300 69.600 M122.014 70.900 C 122.014 71.010,122.143 71.325,122.300 71.600 C 122.457 71.875,122.586 72.010,122.586 71.900 C 122.586 71.790,122.457 71.475,122.300 71.200 C 122.143 70.925,122.014 70.790,122.014 70.900 M117.541 72.494 C 117.836 73.096,118.111 73.555,118.152 73.514 C 118.242 73.424,117.233 71.400,117.099 71.400 C 117.047 71.400,117.246 71.892,117.541 72.494 M125.262 83.700 C 125.263 84.360,125.300 84.606,125.345 84.246 C 125.389 83.887,125.389 83.347,125.343 83.046 C 125.297 82.746,125.261 83.040,125.262 83.700 M51.846 84.200 C 51.846 84.585,51.888 84.743,51.938 84.550 C 51.988 84.358,51.988 84.043,51.938 83.850 C 51.888 83.658,51.846 83.815,51.846 84.200 M56.446 84.200 C 56.446 84.585,56.488 84.743,56.538 84.550 C 56.588 84.358,56.588 84.043,56.538 83.850 C 56.488 83.658,56.446 83.815,56.446 84.200 M120.669 85.300 C 120.669 86.180,120.704 86.515,120.747 86.045 C 120.789 85.574,120.788 84.854,120.745 84.445 C 120.702 84.035,120.668 84.420,120.669 85.300 M51.846 86.400 C 51.846 86.785,51.888 86.942,51.938 86.750 C 51.988 86.558,51.988 86.243,51.938 86.050 C 51.888 85.858,51.846 86.015,51.846 86.400 M56.446 86.400 C 56.446 86.785,56.488 86.942,56.538 86.750 C 56.588 86.558,56.588 86.243,56.538 86.050 C 56.488 85.858,56.446 86.015,56.446 86.400 M125.262 86.900 C 125.263 87.560,125.300 87.806,125.345 87.446 C 125.389 87.087,125.389 86.547,125.343 86.246 C 125.297 85.946,125.261 86.240,125.262 86.900 M117.541 98.106 C 117.246 98.708,117.047 99.200,117.099 99.200 C 117.233 99.200,118.242 97.176,118.152 97.086 C 118.111 97.045,117.836 97.504,117.541 98.106 M122.232 99.109 C 121.897 99.844,121.961 100.001,122.324 99.332 C 122.493 99.020,122.594 98.727,122.548 98.681 C 122.502 98.636,122.360 98.828,122.232 99.109 M169.687 99.650 L 169.100 100.300 169.750 99.713 C 170.108 99.390,170.400 99.097,170.400 99.063 C 170.400 98.908,170.235 99.044,169.687 99.650 M237.592 101.050 C 238.420 101.933,238.600 102.092,238.600 101.942 C 238.600 101.910,238.173 101.482,237.650 100.992 L 236.700 100.100 237.592 101.050 M121.300 101.000 C 121.129 101.330,121.035 101.600,121.090 101.600 C 121.145 101.600,121.329 101.330,121.500 101.000 C 121.671 100.670,121.765 100.400,121.710 100.400 C 121.655 100.400,121.471 100.670,121.300 101.000 M65.100 106.000 C 65.642 106.550,66.130 107.000,66.185 107.000 C 66.240 107.000,65.842 106.550,65.300 106.000 C 64.758 105.450,64.270 105.000,64.215 105.000 C 64.160 105.000,64.558 105.450,65.100 106.000 M111.891 106.050 L 111.100 106.900 111.950 106.109 C 112.740 105.374,112.892 105.200,112.741 105.200 C 112.708 105.200,112.325 105.583,111.891 106.050 M110.087 107.650 L 109.500 108.300 110.150 107.713 C 110.508 107.390,110.800 107.097,110.800 107.063 C 110.800 106.908,110.635 107.044,110.087 107.650 M116.687 107.650 L 116.100 108.300 116.750 107.713 C 117.108 107.390,117.400 107.097,117.400 107.063 C 117.400 106.908,117.235 107.044,116.687 107.650 M113.487 110.850 L 112.900 111.500 113.550 110.913 C 113.908 110.590,114.200 110.297,114.200 110.263 C 114.200 110.108,114.035 110.244,113.487 110.850 M103.800 111.800 C 103.415 112.011,103.172 112.187,103.260 112.192 C 103.472 112.203,104.600 111.616,104.600 111.495 C 104.600 111.364,104.588 111.368,103.800 111.800 M110.900 112.918 L 110.300 113.433 110.950 113.003 C 111.308 112.766,111.600 112.534,111.600 112.486 C 111.600 112.337,111.515 112.389,110.900 112.918 M87.746 115.544 C 88.101 115.589,88.731 115.589,89.146 115.546 C 89.560 115.503,89.270 115.467,88.500 115.466 C 87.730 115.465,87.390 115.500,87.746 115.544 M86.346 120.144 C 86.701 120.189,87.331 120.189,87.746 120.146 C 88.160 120.103,87.870 120.067,87.100 120.066 C 86.330 120.065,85.990 120.100,86.346 120.144 M89.250 120.146 C 89.663 120.189,90.338 120.189,90.750 120.146 C 91.163 120.103,90.825 120.067,90.000 120.067 C 89.175 120.067,88.838 120.103,89.250 120.146 M299.087 286.450 L 298.500 287.100 299.150 286.513 C 299.756 285.965,299.892 285.800,299.737 285.800 C 299.703 285.800,299.410 286.093,299.087 286.450 M312.800 285.863 C 312.800 285.897,313.093 286.190,313.450 286.513 L 314.100 287.100 313.513 286.450 C 312.965 285.844,312.800 285.708,312.800 285.863 M298.646 293.400 C 298.646 293.785,298.688 293.943,298.738 293.750 C 298.788 293.558,298.788 293.243,298.738 293.050 C 298.688 292.858,298.646 293.015,298.646 293.400 M313.846 293.400 C 313.846 293.785,313.888 293.943,313.938 293.750 C 313.988 293.558,313.988 293.243,313.938 293.050 C 313.888 292.858,313.846 293.015,313.846 293.400 M298.600 299.863 C 298.600 299.897,298.893 300.190,299.250 300.513 L 299.900 301.100 299.313 300.450 C 298.765 299.844,298.600 299.708,298.600 299.863 M313.287 300.450 L 312.700 301.100 313.350 300.513 C 313.956 299.965,314.092 299.800,313.937 299.800 C 313.903 299.800,313.610 300.093,313.287 300.450 " stroke="none" fill="#bcbcbc" fill-rule="evenodd"></path><path id="path7" d="M152.046 156.400 C 152.046 156.785,152.088 156.942,152.138 156.750 C 152.188 156.558,152.188 156.243,152.138 156.050 C 152.088 155.858,152.046 156.015,152.046 156.400 M139.250 250.300 C 139.253 250.740,139.294 250.896,139.341 250.648 C 139.389 250.399,139.387 250.039,139.337 249.848 C 139.287 249.656,139.248 249.860,139.250 250.300 M199.446 253.200 C 199.446 253.585,199.488 253.743,199.538 253.550 C 199.588 253.357,199.588 253.043,199.538 252.850 C 199.488 252.657,199.446 252.815,199.446 253.200 M199.650 256.900 C 199.653 257.340,199.694 257.496,199.741 257.248 C 199.789 256.999,199.787 256.639,199.737 256.448 C 199.687 256.256,199.648 256.460,199.650 256.900 M139.250 257.300 C 139.253 257.740,139.294 257.896,139.341 257.648 C 139.389 257.399,139.387 257.039,139.337 256.848 C 139.287 256.656,139.248 256.860,139.250 257.300 M199.654 265.200 C 199.654 265.695,199.693 265.897,199.741 265.650 C 199.789 265.403,199.789 264.998,199.741 264.750 C 199.693 264.502,199.654 264.705,199.654 265.200 M191.389 291.150 L 190.700 291.900 191.450 291.211 C 192.148 290.569,192.292 290.400,192.139 290.400 C 192.106 290.400,191.768 290.738,191.389 291.150 " stroke="none" fill="#5c7c94" fill-rule="evenodd"></path><path id="path8" d="M86.200 50.630 C 64.327 51.869,48.424 71.449,52.599 92.001 C 53.102 94.476,53.117 94.498,54.058 94.105 C 54.486 93.926,55.393 93.800,56.255 93.800 L 57.722 93.800 57.282 92.050 C 51.505 69.094,75.582 48.887,99.273 56.808 C 123.876 65.034,128.369 95.717,107.062 110.003 C 91.859 120.196,69.110 115.413,60.617 100.238 C 60.478 99.989,60.340 100.025,59.765 100.464 C 58.835 101.173,57.759 101.600,56.900 101.600 L 56.188 101.600 56.644 102.409 C 68.398 123.262,100.586 126.049,116.728 107.610 C 137.280 84.135,118.354 48.809,86.200 50.630 M213.746 90.544 C 214.101 90.589,214.731 90.589,215.146 90.546 C 215.560 90.503,215.270 90.467,214.500 90.466 C 213.730 90.465,213.390 90.500,213.746 90.544 M171.250 164.900 C 171.253 165.340,171.294 165.496,171.341 165.248 C 171.389 164.999,171.387 164.639,171.337 164.448 C 171.287 164.256,171.248 164.460,171.250 164.900 M305.196 283.616 C 297.267 284.489,293.555 293.962,298.821 299.886 C 303.571 305.229,312.225 303.974,315.331 297.491 C 318.600 290.667,312.835 282.775,305.196 283.616 M308.831 286.327 C 314.016 287.957,315.601 294.892,311.664 298.727 C 308.007 302.288,301.546 301.225,299.485 296.723 C 296.629 290.486,302.233 284.253,308.831 286.327 " stroke="none" fill="#bcb4b4" fill-rule="evenodd"></path></g></svg>